<svg width="158" height="158" xmlns="http://www.w3.org/2000/svg" fill="none">

 <g>
  <title>Layer 1</title>
  <path id="svg_1" fill="#10CB5B" d="m103.027,24.9124l4.959,-12.51751l-5.665,-0.51989l-2.3863,4.05252l-0.04,-0.02666l-2.4927,4.33246l-1.8129,3.10608c-0.5998,-0.12 -1.1864,0.0799 -1.493,0.5065c-0.0666,0.0667 -0.1199,0.1467 -0.1599,0.24l-1.3197,2.7061c-0.1466,0.2799 -0.1466,0.6132 -0.0266,0.9198c0.1066,0.2666 0.3066,0.5066 0.5732,0.6799c-0.7865,2.2929 -3.5325,10.3446 -4.5722,14.6104l-3.5058,6.5853l-19.4084,-0.12l0,0.0267c-4.9588,5.7988 -19.2218,23.6486 -21.5146,30.0606l-1.7329,4.6791c-0.0266,0.0666 -0.04,0.1333 -0.04,0.1999c-0.0266,0.3866 -0.5198,9.7181 8.9978,18.9029c0.0133,0.0133 0.0266,0.0267 0.04,0.04c5.252,4.2925 14.8762,12.0374 14.9695,12.1174c0.1466,0.107 0.3066,0.173 0.4799,0.173c0.1733,0 0.3332,-0.053 0.4665,-0.16c2.2794,-1.746 5.7319,-6.1716 2.5061,-10.3707c-0.6399,-0.8265 -1.5063,-1.693 -2.5194,-2.6928c-4.9987,-4.9457 -11.837,-11.7044 -0.08,-23.3553c0.0267,-0.0267 0.04,-0.04 0.0667,-0.0667c2.1727,-2.7594 9.3976,-8.505 15.756,-12.5175l0.4265,-0.2666c3.2925,-2.0796 10.9972,-6.9319 13.5033,-10.1046c0.04,-0.04 0.0666,-0.0933 0.0933,-0.1467l2.2128,-4.719c0.0799,-0.1733 0.0933,-0.3866 0.0133,-0.5599l-2.9859,-7.2252c0.8664,-4.1592 1.5596,-7.1986 2.9326,-10.6645l1.3198,-2.8395c0.6,0.1067 1.173,-0.0933 1.479,-0.5065c0.067,-0.0667 0.12,-0.1467 0.16,-0.24l1.32,-2.7061c0.147,-0.2933 0.147,-0.6132 0.027,-0.9198c-0.107,-0.2933 -0.294,-0.5199 -0.547,-0.6932zm-7.2913,30.3805c-2.3994,2.9728 -9.8775,7.6785 -13.0767,9.7048l-0.4265,0.2666c-6.4517,4.0791 -13.8099,9.9313 -16.1026,12.8241c-12.7301,12.6374 -4.6922,20.5825 0.1066,25.3282c0.9731,0.9598 1.8129,1.7996 2.3994,2.5462c2.6394,3.4526 -0.5198,6.8522 -1.7729,7.9982c-2.0394,-1.64 -9.8775,-7.9583 -14.4363,-11.6908c-8.5045,-8.2117 -8.5578,-16.7033 -8.5445,-17.6765l1.6929,-4.5724c1.9862,-5.5855 14.4763,-21.6223 20.8214,-29.1141l19.595,0.1199l3.9724,-7.4518l0.0666,-0.1733c0,-0.0267 0.0133,-0.0533 0.0133,-0.08l0.04,0.0133c1.1597,-4.8123 4.7322,-15.0636 4.7722,-15.1702l0.2266,-0.6399l-0.9598,-0.3866l1.1331,-2.3062c0.0133,0 0.0133,0 0.0266,0.0133l0.9331,0.3733l0.04,-0.08l0.0133,0l6.8921,-11.73097l2.679,0.23995l-4.786,12.09092l0.973,0.3866l-1.133,2.3062c-0.013,0 -0.026,0 -0.026,-0.0134l-1.04,-0.4132l-0.04,0.08l-0.0266,-0.0134l-1.9595,4.2125c-1.453,3.6926 -2.1595,6.8387 -3.0792,11.1978l0,0.0133l0,0.0133l0.0133,0l3.0526,7.3852l-2.0529,4.3991z"/>
  <path id="svg_2" fill="#10CB5B" d="m118.477,101.057c-0.014,-0.2933 -0.2,-0.5599 -0.493,-0.6666c-0.294,-0.1066 -0.627,-0.0266 -0.827,0.2l-11.904,13.0106c-0.04,-0.107 -0.08,-0.227 -0.106,-0.36c-0.16,-0.893 0.133,-3.0526 3.892,-7.3584c6.892,-7.6251 8.398,-9.4914 8.558,-10.1979l0.013,0c0.067,-1.0931 0.494,-10.7178 -4.359,-11.1044c-0.266,-0.0267 -0.546,0.1199 -0.693,0.3332c-0.586,0.8265 -11.61,11.7443 -19.1282,19.1429c-0.3733,-0.2533 -0.8265,-0.6533 -0.9065,-1.1598c-0.1466,-0.8132 0.6265,-1.693 1.3197,-2.3196c9.544,-9.2514 18.755,-19.7293 18.849,-19.836c0.08,-0.0799 0.133,-0.1866 0.16,-0.2932c0.013,-0.08 1.879,-7.8518 -6.119,-9.8647c-0.227,-0.0533 -0.466,-0.0134 -0.653,0.1333c-3.279,2.4395 -19.9684,16.3834 -22.4078,18.4096c-0.5865,-0.12 -1.4129,-0.4132 -1.5729,-0.8798c-0.08,-0.24 -0.0933,-0.9598 1.5596,-2.4262l11.4504,-8.7849c0.08,-0.0666 7.7577,-6.1188 10.1307,-7.8517c1.573,-1.1598 0.6,-4.2259 -1.106,-6.5054c-2.2,-2.9461 -4.8924,-3.9459 -7.0118,-2.5861c-0.2266,0.1466 -24.9137,17.2632 -30.8722,25.3149c-2.706,4.1591 -2.746,6.6653 -0.1866,11.6909c0.0266,0.0534 0.0666,0.1067 0.1066,0.1467l5.9452,6.7453c0.0533,0.0666 4.7454,6.1721 0.6798,10.2513c-2.1061,2.373 -4.4122,4.439 -5.372,5.279c-2.4127,-1.773 -12.93,-9.5315 -16.5025,-12.5176c-6.545,-5.4522 -8.9044,-14.1705 -8.9177,-14.2504c-0.08,-0.32 -0.3733,-0.5466 -0.7198,-0.5466c-0.3333,-0.0133 -0.6399,0.2133 -0.7332,0.5199c-0.1333,0.4532 -3.1059,10.6245 1.8396,22.5287c-0.9465,0.72 -1.2931,1.986 -0.7732,3.079c0.4532,0.947 1.4263,1.507 2.4527,1.507c0.3733,0 0.7465,-0.08 1.1064,-0.227c1.3463,-0.586 1.9462,-2.119 1.333,-3.412c-0.4932,-1.027 -1.5996,-1.6 -2.706,-1.493c-3.2791,-7.9189 -2.8926,-15.1574 -2.346,-18.9033c1.2396,3.1593 3.839,8.4249 8.4778,12.2908c4.0656,3.386 16.9424,12.8505 17.0757,12.9445c0.2799,0.213 0.6798,0.2 0.9597,-0.027c0.1333,-0.107 3.1726,-2.653 5.9585,-5.799c4.9055,-4.9322 -0.5332,-12.0241 -0.6131,-12.1175l-5.9052,-6.7186c-2.2928,-4.5058 -2.2528,-6.5187 0.12,-10.1713c5.4652,-7.3852 28.966,-23.9685 30.4456,-24.915c2.1197,-1.3464 4.4917,1.613 4.9457,2.2262c1.546,2.0796 1.919,4.1459 1.413,4.5191c-2.386,1.7597 -10.0911,7.8251 -10.1577,7.8784l-11.4638,8.7849c-0.0133,0.0134 -0.0267,0.0267 -0.04,0.04c-1.7196,1.5331 -2.3727,2.8261 -1.9862,3.9592c0.5466,1.5864 2.8926,1.8797 3.1592,1.9197c0.2133,0.0266 0.4266,-0.04 0.5865,-0.1733c0.1867,-0.16 18.209,-15.2103 22.301,-18.3564c5.665,1.653 4.919,6.8653 4.719,7.8651c-1.12,1.2664 -9.731,10.9845 -18.6221,19.5961c-1.373,1.2397 -1.9728,2.4528 -1.7595,3.6126c0.3066,1.6663 2.1594,2.4528 2.2261,2.4795c0.2932,0.12 0.6265,0.0533 0.8398,-0.16c2.9592,-2.9061 16.9557,-16.6766 19.3947,-19.3694c2.48,0.7465 2.746,6.9319 2.626,9.3581c-0.253,0.3733 -1.559,2.1196 -8.224,9.4914c-3.239,3.706 -4.652,6.6254 -4.213,8.6652c0.28,1.253 1.147,1.693 1.254,1.746c0.306,0.147 0.679,0.08 0.906,-0.173l11.157,-12.1978c-0.306,25.5018 -20.5014,32.7538 -32.7116,34.7928l-0.2266,0.04c-10.7573,1.027 -19.2885,-1.053 -26.6066,-6.518c0.3466,-0.667 0.3999,-1.48 0.0533,-2.213c-0.6132,-1.293 -2.2128,-1.867 -3.5591,-1.28c-1.3463,0.586 -1.9462,2.119 -1.333,3.413c0.2933,0.626 0.8265,1.106 1.5063,1.346c0.3066,0.107 0.6265,0.16 0.9464,0.16c0.3733,0 0.7598,-0.08 1.1064,-0.227c0.0933,-0.04 0.1733,-0.08 0.2533,-0.12c6.3984,4.786 13.8631,7.159 22.6476,7.159c1.6796,0 3.3991,-0.08 5.1853,-0.253c0.0134,0 0.04,0 0.0534,-0.014l0.2532,-0.04c2.826,-0.48 11.4105,-1.919 19.3017,-7.292c9.998,-6.892 14.93,-17.276 14.57,-30.9zm-74.4614,14.464c0.6798,0 1.333,0.373 1.6263,1.013c0.1999,0.413 0.2132,0.88 0.04,1.306c-0.1733,0.427 -0.5066,0.773 -0.9331,0.96c-0.8931,0.387 -1.9595,0.013 -2.3728,-0.853c-0.4132,-0.867 -0.0133,-1.88 0.8931,-2.266c0.2533,-0.107 0.5066,-0.16 0.7465,-0.16zm9.3976,15.33c-0.4132,-0.867 -0.0133,-1.88 0.8931,-2.266c0.24,-0.107 0.4932,-0.16 0.7332,-0.16c0.2133,0 0.4265,0.04 0.6265,0.106c0.4532,0.16 0.7998,0.48 0.9997,0.894c0.4133,0.866 0.0134,1.879 -0.8931,2.266c-0.8931,0.4 -1.9595,0.026 -2.3594,-0.84z"/>
  <path id="svg_3" fill="#10CB5B" d="m85.0585,56.7726c-0.6132,-1.2931 -2.1994,-1.8663 -3.5591,-1.2797c-0.6532,0.2799 -1.1464,0.7998 -1.3997,1.4397c-0.0266,0.0533 -0.0399,0.1199 -0.0666,0.1866l-12.5968,0l-8.9444,12.8641c-0.6265,-0.2 -1.3197,-0.1867 -1.9728,0.0933c-0.6532,0.2799 -1.1464,0.7998 -1.3997,1.4397c-0.2533,0.6399 -0.2266,1.3464 0.0667,1.9729c0.4532,0.9465 1.4263,1.5064 2.4527,1.5064c0.3732,0 0.7464,-0.08 1.1064,-0.2266c1.3463,-0.5866 1.9461,-2.1196 1.3329,-3.4127c-0.0933,-0.1999 -0.2132,-0.3732 -0.3465,-0.5332l8.5178,-12.2509l11.7837,0c0.04,0.12 0.08,0.2267 0.1333,0.3333c0.4532,0.9465 1.4263,1.5064 2.4527,1.5064c0.3732,0 0.7465,-0.08 1.1064,-0.2266c0.6532,-0.28 1.1464,-0.7999 1.3996,-1.4398c0.2533,-0.6398 0.2267,-1.3464 -0.0666,-1.9729zm-25.7402,16.2501c-0.1732,0.4265 -0.5065,0.7731 -0.9331,0.9598c-0.8931,0.3866 -1.9595,0.0133 -2.3727,-0.8532c-0.4132,-0.8665 -0.0133,-1.8796 0.8931,-2.2662c0.24,-0.1066 0.4932,-0.1466 0.7332,-0.1466c0.6798,0 1.333,0.3732 1.6262,1.0131c0.2,0.3999 0.2133,0.8665 0.0533,1.2931zm24.9671,-14.5838c-0.1733,0.4266 -0.5066,0.7732 -0.9331,0.9598c-0.8931,0.3866 -1.9595,0.0134 -2.3728,-0.8531c-0.4132,-0.8665 -0.0133,-1.8796 0.8931,-2.2662c0.24,-0.1067 0.4932,-0.1467 0.7332,-0.1467c0.6798,0 1.333,0.3733 1.6396,1.0132c0.1866,0.3999 0.2132,0.8665 0.04,1.293z"/>
 </g>
</svg>